<svg xmlns="http://www.w3.org/2000/svg" viewBox="0 0 1024 1024" width="1024" height="1024">
  <defs>
    <linearGradient id="bgGrad" x1="0%" y1="0%" x2="100%" y2="100%">
      <stop offset="0%" style="stop-color:#4A90D9"/>
      <stop offset="50%" style="stop-color:#6B5CE7"/>
      <stop offset="100%" style="stop-color:#8B5CF6"/>
    </linearGradient>
    <linearGradient id="glassTop" x1="0%" y1="0%" x2="0%" y2="100%">
      <stop offset="0%" style="stop-color:#FFFFFF" stop-opacity="0.4"/>
      <stop offset="100%" style="stop-color:#FFFFFF" stop-opacity="0"/>
    </linearGradient>
    <linearGradient id="pageGrad" x1="0%" y1="0%" x2="0%" y2="100%">
      <stop offset="0%" style="stop-color:#FFFFFF"/>
      <stop offset="100%" style="stop-color:#E8E8F0"/>
    </linearGradient>
    <linearGradient id="sparkleGrad" x1="0%" y1="0%" x2="100%" y2="100%">
      <stop offset="0%" style="stop-color:#FFD700"/>
      <stop offset="100%" style="stop-color:#FFA500"/>
    </linearGradient>
    <filter id="shadow" x="-10%" y="-10%" width="130%" height="130%">
      <feDropShadow dx="0" dy="8" stdDeviation="20" flood-color="#000" flood-opacity="0.25"/>
    </filter>
    <filter id="pageShadow" x="-5%" y="-5%" width="115%" height="115%">
      <feDropShadow dx="4" dy="6" stdDeviation="12" flood-color="#000" flood-opacity="0.2"/>
    </filter>
    <filter id="sparkleShadow">
      <feDropShadow dx="0" dy="2" stdDeviation="6" flood-color="#FFD700" flood-opacity="0.5"/>
    </filter>
  </defs>
  <rect x="20" y="20" width="984" height="984" rx="220" ry="220" fill="url(#bgGrad)" filter="url(#shadow)"/>
  <rect x="20" y="20" width="984" height="492" rx="220" ry="220" fill="url(#glassTop)" opacity="0.3"/>
  <g filter="url(#pageShadow)">
    <path d="M300 200 L620 200 L724 304 L724 824 L300 824 Z" fill="url(#pageGrad)"/>
    <path d="M620 200 L620 304 L724 304 Z" fill="#D0D0E0"/>
    <rect x="360" y="380" width="300" height="14" rx="7" fill="#C0C0D8" opacity="0.6"/>
    <rect x="360" y="420" width="260" height="14" rx="7" fill="#C0C0D8" opacity="0.5"/>
    <rect x="360" y="460" width="280" height="14" rx="7" fill="#C0C0D8" opacity="0.4"/>
    <rect x="360" y="500" width="200" height="14" rx="7" fill="#C0C0D8" opacity="0.3"/>
    <rect x="348" y="570" width="324" height="100" rx="12" fill="#6B5CE7" opacity="0.1"/>
    <rect x="370" y="595" width="220" height="10" rx="5" fill="#6B5CE7" opacity="0.35"/>
    <rect x="370" y="618" width="180" height="10" rx="5" fill="#6B5CE7" opacity="0.25"/>
    <rect x="370" y="641" width="240" height="10" rx="5" fill="#6B5CE7" opacity="0.15"/>
  </g>
  <g transform="translate(200, 260)" opacity="0.9">
    <circle cx="80" cy="80" r="56" fill="none" stroke="white" stroke-width="14" opacity="0.9"/>
    <line x1="120" y1="120" x2="160" y2="160" stroke="white" stroke-width="14" stroke-linecap="round" opacity="0.9"/>
  </g>
  <g filter="url(#sparkleShadow)" transform="translate(680, 110)">
    <path d="M60 0 L72 42 L114 54 L72 66 L60 108 L48 66 L6 54 L48 42 Z" fill="url(#sparkleGrad)"/>
    <path d="M110 80 L116 96 L132 102 L116 108 L110 124 L104 108 L88 102 L104 96 Z" fill="#FFD700" opacity="0.7"/>
  </g>
  <path d="M580 200 L580 300 L612 275 L644 300 L644 200 Z" fill="#FF6B6B" opacity="0.85"/>
</svg>
